<svg xmlns="http://www.w3.org/2000/svg" xmlns:xlink="http://www.w3.org/1999/xlink" width="1080" zoomAndPan="magnify" viewBox="0 0 810 809.999993" height="1080" preserveAspectRatio="xMidYMid meet" version="1.0"><defs><clipPath id="e33934de04"><path d="M 133.625 30 L 671 30 L 671 222 L 133.625 222 Z M 133.625 30 " clip-rule="nonzero"/></clipPath></defs><g clip-path="url(#e33934de04)"><path fill="#fdaf27" d="M 597.382812 31.84375 C 559.863281 24.105469 520.929688 42.160156 501.203125 76.332031 C 496.5625 84.457031 493.207031 93.097656 491.015625 102.125 C 482.25 67.304688 454.917969 39.0625 420.105469 31.84375 C 382.589844 24.105469 343.652344 42.160156 323.796875 76.332031 C 319.15625 84.457031 315.804688 93.097656 313.609375 102.125 C 304.84375 67.304688 277.511719 39.0625 242.699219 31.84375 C 205.183594 24.105469 166.246094 42.160156 146.390625 76.332031 C 126.535156 110.636719 129.757812 155.644531 154.125 186.59375 C 178.492188 217.417969 219.75 229.410156 255.851562 215.871094 C 284.601562 205.035156 306.003906 179.503906 313.480469 149.195312 C 316.707031 162.609375 322.636719 175.503906 331.402344 186.464844 C 355.769531 217.289062 397.027344 229.28125 433.128906 215.742188 C 461.878906 204.90625 483.28125 179.375 490.757812 149.066406 C 493.980469 162.480469 499.914062 175.375 508.550781 186.335938 C 532.917969 217.160156 574.175781 229.152344 610.277344 215.609375 C 646.246094 202.070312 670.871094 165.445312 670.871094 125.46875 C 670.871094 80.332031 639.414062 40.355469 596.996094 31.585938 Z M 597.382812 31.84375 " fill-opacity="1" fill-rule="nonzero"/></g><path fill="#fdaf27" d="M 304.84375 496.746094 C 314.125 538.398438 337.851562 577.21875 379.492188 589.210938 C 418.945312 600.429688 462.910156 582.246094 483.28125 544.847656 C 495.53125 522.410156 493.980469 497.132812 493.851562 472.242188 C 493.722656 455.476562 493.722656 438.84375 493.722656 422.078125 C 493.722656 403.636719 493.722656 385.324219 493.851562 366.882812 C 493.980469 343.28125 493.335938 320.457031 504.554688 299.046875 C 520.027344 269.515625 550.96875 251.203125 583.199219 252.621094 C 615.820312 254.042969 645.472656 275.320312 658.367188 306.65625 C 667.003906 327.421875 665.457031 349.988281 665.585938 372.039062 C 665.714844 390.222656 665.714844 408.535156 665.714844 426.71875 C 665.714844 466.054688 668.035156 507.191406 660.816406 546.007812 C 643.796875 635.765625 584.359375 713.914062 503.652344 749.894531 C 422.941406 785.875 327.40625 776.203125 254.691406 725.003906 C 218.847656 699.730469 189.324219 664.78125 169.855469 624.417969 C 150.644531 584.4375 139.042969 534.53125 146.390625 489.910156 C 151.933594 456.640625 177.074219 429.429688 208.792969 422.59375 C 241.667969 415.5 276.222656 431.492188 293.371094 461.667969 C 299.558594 472.628906 302.265625 484.496094 305.101562 496.746094 Z M 304.84375 496.746094 " fill-opacity="1" fill-rule="nonzero"/></svg>