<svg xmlns="http://www.w3.org/2000/svg" xmlns:xlink="http://www.w3.org/1999/xlink" width="1080" zoomAndPan="magnify" viewBox="0 0 810 809.999993" height="1080" preserveAspectRatio="xMidYMid meet" version="1.0"><path fill="#000000" d="M 654.230469 230.539062 C 654.230469 230.539062 221.589844 230.539062 146.996094 230.539062 C 125.113281 230.539062 105.675781 226.152344 105.675781 205.617188 L 654.230469 180.691406 L 654.230469 130.847656 C 654.230469 89.574219 620.734375 81 579.460938 81 L 131.371094 155.769531 C 91.441406 164.640625 81 181.566406 81 205.617188 L 81 654.230469 C 81 695.503906 114.496094 729 155.769531 729 L 654.230469 729 C 695.503906 729 729 695.503906 729 654.230469 L 729 305.308594 C 729 264.035156 695.503906 230.539062 654.230469 230.539062 Z M 629.308594 529.617188 C 601.792969 529.617188 579.460938 507.285156 579.460938 479.769531 C 579.460938 452.253906 601.792969 429.921875 629.308594 429.921875 C 656.824219 429.921875 679.152344 452.253906 679.152344 479.769531 C 679.152344 507.285156 656.824219 529.617188 629.308594 529.617188 Z M 629.308594 529.617188 " fill-opacity="1" fill-rule="nonzero"/></svg>