<svg xmlns="http://www.w3.org/2000/svg" xmlns:xlink="http://www.w3.org/1999/xlink" width="1080" zoomAndPan="magnify" viewBox="0 0 810 809.999993" height="1080" preserveAspectRatio="xMidYMid meet" version="1.0"><defs><clipPath id="1544fc492f"><path d="M 1.960938 15 L 808.210938 15 L 808.210938 795 L 1.960938 795 Z M 1.960938 15 " clip-rule="nonzero"/></clipPath></defs><g clip-path="url(#1544fc492f)"><path fill="#00aed6" d="M 404.804688 15.164062 C 628.101562 15.164062 809.117188 189.796875 809.117188 405.21875 C 809.117188 620.652344 628.101562 795.285156 404.804688 795.285156 C 181.523438 795.285156 0.507812 620.652344 0.507812 405.21875 C 0.507812 189.796875 181.523438 15.164062 404.804688 15.164062 Z M 404.804688 15.164062 " fill-opacity="1" fill-rule="nonzero"/></g><path fill="#ffffff" d="M 640.648438 393.195312 C 637.574219 343.558594 593.769531 305.492188 542.273438 307.707031 L 286.894531 307.707031 C 277.582031 307.707031 270.039062 300.429688 270.039062 291.457031 C 270.039062 282.484375 277.582031 275.203125 286.894531 275.203125 L 545.644531 275.203125 C 544.128906 241.558594 520.320312 212.683594 486.675781 203.699219 C 411.25 190.691406 334.027344 190.691406 258.589844 203.699219 C 215.71875 213.859375 183.648438 248.273438 177.726562 290.484375 C 165.933594 366.984375 165.933594 444.765625 177.726562 521.265625 C 186.757812 565.929688 223.542969 600.5 270.039062 608.0625 C 363.566406 619.429688 458.1875 619.429688 551.703125 608.0625 C 593.371094 599.914062 624.902344 566.878906 629.875 526.148438 C 638.433594 482.332031 642.039062 437.757812 640.648438 393.195312 Z M 556.429688 447.804688 L 556.429688 462.113281 C 556.429688 471.085938 548.886719 478.363281 539.582031 478.363281 C 530.28125 478.363281 522.738281 471.085938 522.738281 462.113281 L 522.738281 447.804688 C 517.289062 443.226562 514.214844 436.570312 514.304688 429.609375 C 514.304688 416.136719 525.621094 405.21875 539.582031 405.21875 C 553.535156 405.21875 564.851562 416.136719 564.851562 429.609375 C 564.769531 436.535156 561.71875 443.125 556.429688 447.804688 Z M 556.429688 447.804688 " fill-opacity="1" fill-rule="evenodd"/></svg>