<svg xmlns="http://www.w3.org/2000/svg" xmlns:xlink="http://www.w3.org/1999/xlink" width="1080" zoomAndPan="magnify" viewBox="0 0 810 809.999993" height="1080" preserveAspectRatio="xMidYMid meet" version="1.0"><defs><clipPath id="d50c0f1357"><path d="M 82 81 L 728 81 L 728 725 L 82 725 Z M 82 81 " clip-rule="nonzero"/></clipPath></defs><g clip-path="url(#d50c0f1357)"><path fill="#000000" d="M 404.214844 80.269531 C 402.460938 80.292969 400.714844 80.40625 398.972656 80.601562 C 397.230469 80.800781 395.503906 81.082031 393.789062 81.449219 C 392.074219 81.816406 390.382812 82.265625 388.714844 82.796875 C 387.042969 83.332031 385.402344 83.945312 383.792969 84.640625 C 382.183594 85.332031 380.613281 86.105469 379.078125 86.953125 C 377.542969 87.800781 376.054688 88.722656 374.609375 89.71875 C 373.167969 90.710938 371.777344 91.777344 370.4375 92.90625 C 369.097656 94.039062 367.816406 95.234375 366.59375 96.488281 C 365.375 97.746094 364.214844 99.058594 363.125 100.429688 C 362.03125 101.800781 361.007812 103.222656 360.054688 104.695312 C 359.101562 106.164062 358.222656 107.679688 357.417969 109.238281 C 356.613281 110.792969 355.886719 112.386719 355.238281 114.015625 C 354.589844 115.644531 354.023438 117.300781 353.535156 118.984375 C 353.050781 120.671875 352.648438 122.375 352.332031 124.097656 C 352.011719 125.820312 351.78125 127.558594 351.632812 129.304688 C 351.484375 131.050781 351.421875 132.800781 351.445312 134.554688 L 351.445312 348.769531 L 137.230469 348.769531 C 135.460938 348.742188 133.695312 348.804688 131.929688 348.957031 C 130.167969 349.105469 128.417969 349.34375 126.675781 349.667969 C 124.9375 349.992188 123.214844 350.398438 121.515625 350.894531 C 119.816406 351.386719 118.144531 351.964844 116.503906 352.625 C 114.863281 353.285156 113.257812 354.023438 111.6875 354.84375 C 110.117188 355.664062 108.59375 356.558594 107.113281 357.527344 C 105.632812 358.5 104.203125 359.539062 102.828125 360.652344 C 101.449219 361.765625 100.132812 362.941406 98.871094 364.183594 C 97.609375 365.425781 96.414062 366.726562 95.285156 368.089844 C 94.152344 369.449219 93.089844 370.863281 92.101562 372.332031 C 91.109375 373.796875 90.191406 375.308594 89.351562 376.867188 C 88.511719 378.421875 87.75 380.019531 87.066406 381.652344 C 86.382812 383.285156 85.78125 384.945312 85.261719 386.640625 C 84.746094 388.332031 84.3125 390.046875 83.964844 391.78125 C 83.613281 393.515625 83.351562 395.265625 83.179688 397.027344 C 83.003906 398.785156 82.914062 400.550781 82.914062 402.324219 C 82.914062 404.09375 83.003906 405.859375 83.179688 407.617188 C 83.351562 409.378906 83.613281 411.128906 83.964844 412.863281 C 84.3125 414.597656 84.746094 416.3125 85.261719 418.003906 C 85.78125 419.699219 86.382812 421.359375 87.066406 422.992188 C 87.75 424.625 88.511719 426.222656 89.351562 427.777344 C 90.191406 429.335938 91.109375 430.847656 92.101562 432.3125 C 93.089844 433.78125 94.152344 435.195312 95.285156 436.554688 C 96.414062 437.917969 97.609375 439.21875 98.871094 440.460938 C 100.132812 441.703125 101.449219 442.882812 102.828125 443.992188 C 104.203125 445.105469 105.632812 446.144531 107.113281 447.117188 C 108.59375 448.085938 110.117188 448.980469 111.6875 449.800781 C 113.257812 450.621094 114.863281 451.359375 116.503906 452.019531 C 118.144531 452.679688 119.816406 453.257812 121.515625 453.75 C 123.214844 454.246094 124.9375 454.652344 126.675781 454.976562 C 128.417969 455.300781 130.167969 455.539062 131.929688 455.6875 C 133.695312 455.839844 135.460938 455.902344 137.230469 455.875 L 351.445312 455.875 L 351.445312 670.089844 C 351.421875 671.859375 351.484375 673.628906 351.632812 675.390625 C 351.785156 677.15625 352.019531 678.90625 352.34375 680.644531 C 352.667969 682.386719 353.078125 684.105469 353.570312 685.804688 C 354.066406 687.503906 354.644531 689.175781 355.304688 690.816406 C 355.964844 692.460938 356.703125 694.066406 357.523438 695.636719 C 358.339844 697.203125 359.234375 698.730469 360.207031 700.210938 C 361.175781 701.6875 362.21875 703.117188 363.328125 704.496094 C 364.441406 705.871094 365.617188 707.191406 366.859375 708.453125 C 368.105469 709.710938 369.40625 710.90625 370.765625 712.039062 C 372.128906 713.167969 373.542969 714.230469 375.007812 715.222656 C 376.476562 716.214844 377.988281 717.128906 379.542969 717.96875 C 381.101562 718.8125 382.695312 719.574219 384.328125 720.257812 C 385.960938 720.941406 387.625 721.539062 389.316406 722.058594 C 391.007812 722.578125 392.722656 723.011719 394.457031 723.359375 C 396.195312 723.707031 397.941406 723.96875 399.703125 724.144531 C 401.464844 724.320312 403.230469 724.40625 405 724.40625 C 406.769531 724.40625 408.535156 724.320312 410.296875 724.144531 C 412.058594 723.96875 413.804688 723.707031 415.542969 723.359375 C 417.277344 723.011719 418.992188 722.578125 420.683594 722.058594 C 422.375 721.539062 424.039062 720.941406 425.671875 720.257812 C 427.304688 719.574219 428.898438 718.8125 430.457031 717.96875 C 432.011719 717.128906 433.523438 716.214844 434.992188 715.222656 C 436.457031 714.230469 437.871094 713.167969 439.234375 712.039062 C 440.59375 710.90625 441.894531 709.710938 443.136719 708.453125 C 444.382812 707.191406 445.558594 705.871094 446.671875 704.496094 C 447.78125 703.117188 448.824219 701.6875 449.792969 700.210938 C 450.765625 698.730469 451.660156 697.203125 452.476562 695.636719 C 453.296875 694.066406 454.035156 692.460938 454.695312 690.816406 C 455.355469 689.175781 455.933594 687.503906 456.429688 685.804688 C 456.921875 684.105469 457.332031 682.386719 457.65625 680.644531 C 457.980469 678.90625 458.214844 677.15625 458.367188 675.390625 C 458.515625 673.628906 458.578125 671.859375 458.554688 670.089844 L 458.554688 455.875 L 672.769531 455.875 C 674.539062 455.902344 676.304688 455.839844 678.070312 455.6875 C 679.832031 455.539062 681.582031 455.300781 683.324219 454.976562 C 685.0625 454.652344 686.785156 454.246094 688.484375 453.75 C 690.183594 453.257812 691.855469 452.679688 693.496094 452.019531 C 695.136719 451.359375 696.742188 450.621094 698.3125 449.800781 C 699.882812 448.980469 701.40625 448.085938 702.886719 447.117188 C 704.367188 446.144531 705.796875 445.105469 707.171875 443.992188 C 708.550781 442.882812 709.867188 441.703125 711.128906 440.460938 C 712.390625 439.21875 713.585938 437.917969 714.714844 436.554688 C 715.847656 435.195312 716.910156 433.78125 717.898438 432.3125 C 718.890625 430.847656 719.808594 429.335938 720.648438 427.777344 C 721.488281 426.222656 722.25 424.625 722.933594 422.992188 C 723.617188 421.359375 724.21875 419.699219 724.738281 418.003906 C 725.253906 416.3125 725.6875 414.597656 726.035156 412.863281 C 726.386719 411.128906 726.648438 409.378906 726.820312 407.617188 C 726.996094 405.859375 727.085938 404.09375 727.085938 402.324219 C 727.085938 400.550781 726.996094 398.785156 726.820312 397.027344 C 726.648438 395.265625 726.386719 393.515625 726.035156 391.78125 C 725.6875 390.046875 725.253906 388.332031 724.738281 386.640625 C 724.21875 384.945312 723.617188 383.285156 722.933594 381.652344 C 722.25 380.019531 721.488281 378.421875 720.648438 376.867188 C 719.808594 375.308594 718.890625 373.796875 717.898438 372.332031 C 716.910156 370.863281 715.847656 369.449219 714.714844 368.089844 C 713.585938 366.726562 712.390625 365.425781 711.128906 364.183594 C 709.867188 362.941406 708.550781 361.765625 707.171875 360.652344 C 705.796875 359.539062 704.367188 358.5 702.886719 357.527344 C 701.40625 356.558594 699.882812 355.664062 698.3125 354.84375 C 696.742188 354.023438 695.136719 353.285156 693.496094 352.625 C 691.855469 351.964844 690.183594 351.386719 688.484375 350.894531 C 686.785156 350.398438 685.0625 349.992188 683.324219 349.667969 C 681.582031 349.34375 679.832031 349.105469 678.070312 348.957031 C 676.304688 348.804688 674.539062 348.742188 672.769531 348.769531 L 458.554688 348.769531 L 458.554688 134.554688 C 458.578125 132.769531 458.511719 130.984375 458.359375 129.207031 C 458.207031 127.425781 457.964844 125.660156 457.632812 123.90625 C 457.300781 122.152344 456.886719 120.417969 456.378906 118.703125 C 455.875 116.988281 455.289062 115.304688 454.617188 113.652344 C 453.945312 111.996094 453.191406 110.382812 452.355469 108.800781 C 451.523438 107.222656 450.609375 105.691406 449.625 104.203125 C 448.636719 102.714844 447.574219 101.277344 446.445312 99.898438 C 445.3125 98.515625 444.117188 97.191406 442.851562 95.929688 C 441.589844 94.667969 440.265625 93.472656 438.882812 92.34375 C 437.5 91.214844 436.066406 90.15625 434.574219 89.167969 C 433.085938 88.183594 431.554688 87.273438 429.972656 86.441406 C 428.394531 85.609375 426.777344 84.855469 425.121094 84.183594 C 423.464844 83.515625 421.78125 82.929688 420.066406 82.425781 C 418.355469 81.921875 416.621094 81.507812 414.863281 81.179688 C 413.109375 80.847656 411.34375 80.609375 409.5625 80.457031 C 407.785156 80.304688 406 80.242188 404.214844 80.269531 Z M 404.214844 80.269531 " fill-opacity="1" fill-rule="nonzero"/></g></svg>